<svg width="53" height="52" viewBox="0 0 53 52" fill="none" xmlns="http://www.w3.org/2000/svg">
<g clip-path="url(#clip0_9_609)">
<path d="M3.29021 45.5C3.29021 45.5 0 45.5 0 42.25C0 39 3.29021 29.25 19.7412 29.25C36.1923 29.25 39.4825 39 39.4825 42.25C39.4825 45.5 36.1923 45.5 36.1923 45.5H3.29021ZM19.7412 26C22.3591 26 24.8697 24.9728 26.7208 23.1443C28.5719 21.3158 29.6119 18.8359 29.6119 16.25C29.6119 13.6641 28.5719 11.1842 26.7208 9.35571C24.8697 7.52723 22.3591 6.5 19.7412 6.5C17.1234 6.5 14.6128 7.52723 12.7617 9.35571C10.9106 11.1842 9.87062 13.6641 9.87062 16.25C9.87062 18.8359 10.9106 21.3158 12.7617 23.1443C14.6128 24.9728 17.1234 26 19.7412 26Z" fill="#FAFAFA"/>
<path fill-rule="evenodd" clip-rule="evenodd" d="M44.4179 16.25C44.8542 16.25 45.2726 16.4212 45.5812 16.726C45.8897 17.0307 46.063 17.444 46.063 17.875V22.75H50.9983C51.4346 22.75 51.8531 22.9212 52.1616 23.226C52.4701 23.5307 52.6434 23.944 52.6434 24.375C52.6434 24.806 52.4701 25.2193 52.1616 25.524C51.8531 25.8288 51.4346 26 50.9983 26H46.063V30.875C46.063 31.306 45.8897 31.7193 45.5812 32.024C45.2726 32.3288 44.8542 32.5 44.4179 32.5C43.9816 32.5 43.5631 32.3288 43.2546 32.024C42.9461 31.7193 42.7728 31.306 42.7728 30.875V26H37.8375C37.4012 26 36.9827 25.8288 36.6742 25.524C36.3657 25.2193 36.1924 24.806 36.1924 24.375C36.1924 23.944 36.3657 23.5307 36.6742 23.226C36.9827 22.9212 37.4012 22.75 37.8375 22.75H42.7728V17.875C42.7728 17.444 42.9461 17.0307 43.2546 16.726C43.5631 16.4212 43.9816 16.25 44.4179 16.25Z" fill="#FAFAFA"/>
</g>
<defs>
<clipPath id="clip0_9_609">
<rect width="52.6433" height="52" fill="white"/>
</clipPath>
</defs>
</svg>
