<svg width="45" height="39" viewBox="0 0 45 39" fill="none" xmlns="http://www.w3.org/2000/svg">
<path fill-rule="evenodd" clip-rule="evenodd" d="M45 19.5C45 18.9254 44.8307 18.3744 44.5293 17.9682C44.2279 17.5619 43.8192 17.3336 43.393 17.3336H5.48931L15.604 3.70288C15.7534 3.50146 15.872 3.26235 15.9528 2.99918C16.0337 2.73601 16.0753 2.45395 16.0753 2.1691C16.0753 1.88425 16.0337 1.60219 15.9528 1.33902C15.872 1.07585 15.7534 0.836733 15.604 0.635314C15.4546 0.433894 15.2772 0.27412 15.082 0.165113C14.8868 0.0561056 14.6775 0 14.4662 0C14.2549 0 14.0457 0.0561056 13.8505 0.165113C13.6552 0.27412 13.4779 0.433894 13.3285 0.635314L0.472129 17.9662C0.32247 18.1675 0.203733 18.4065 0.122718 18.6697C0.041702 18.9329 0 19.215 0 19.5C0 19.785 0.041702 20.0671 0.122718 20.3303C0.203733 20.5935 0.32247 20.8326 0.472129 21.0338L13.3285 38.3647C13.4779 38.5661 13.6552 38.7259 13.8505 38.8349C14.0457 38.9439 14.2549 39 14.4662 39C14.6775 39 14.8868 38.9439 15.082 38.8349C15.2772 38.7259 15.4546 38.5661 15.604 38.3647C15.7534 38.1633 15.872 37.9241 15.9528 37.661C16.0337 37.3978 16.0753 37.1158 16.0753 36.8309C16.0753 36.5461 16.0337 36.264 15.9528 36.0008C15.872 35.7377 15.7534 35.4985 15.604 35.2971L5.48931 21.6664H43.393C43.8192 21.6664 44.2279 21.4381 44.5293 21.0319C44.8307 20.6256 45 20.0746 45 19.5Z" fill="#FAFAFA"/>
</svg>
