<svg width="50" height="50" viewBox="0 0 50 50" fill="none" xmlns="http://www.w3.org/2000/svg">
<path d="M1.5625 0C1.9769 0 2.37433 0.16462 2.66735 0.457646C2.96038 0.750671 3.125 1.1481 3.125 1.5625V48.4375C3.125 48.8519 2.96038 49.2493 2.66735 49.5424C2.37433 49.8354 1.9769 50 1.5625 50C1.1481 50 0.750671 49.8354 0.457646 49.5424C0.16462 49.2493 0 48.8519 0 48.4375V1.5625C0 1.1481 0.16462 0.750671 0.457646 0.457646C0.750671 0.16462 1.1481 0 1.5625 0V0ZM6.25 4.6875C6.25 4.2731 6.41462 3.87567 6.70765 3.58265C7.00067 3.28962 7.3981 3.125 7.8125 3.125H20.3125C20.7269 3.125 21.1243 3.28962 21.4174 3.58265C21.7104 3.87567 21.875 4.2731 21.875 4.6875V7.8125C21.875 8.2269 21.7104 8.62433 21.4174 8.91735C21.1243 9.21038 20.7269 9.375 20.3125 9.375H7.8125C7.3981 9.375 7.00067 9.21038 6.70765 8.91735C6.41462 8.62433 6.25 8.2269 6.25 7.8125V4.6875ZM12.5 17.1875C12.5 16.7731 12.6646 16.3757 12.9576 16.0826C13.2507 15.7896 13.6481 15.625 14.0625 15.625H35.9375C36.3519 15.625 36.7493 15.7896 37.0424 16.0826C37.3354 16.3757 37.5 16.7731 37.5 17.1875V20.3125C37.5 20.7269 37.3354 21.1243 37.0424 21.4174C36.7493 21.7104 36.3519 21.875 35.9375 21.875H14.0625C13.6481 21.875 13.2507 21.7104 12.9576 21.4174C12.6646 21.1243 12.5 20.7269 12.5 20.3125V17.1875ZM18.75 29.6875C18.75 29.2731 18.9146 28.8757 19.2076 28.5826C19.5007 28.2896 19.8981 28.125 20.3125 28.125H39.0625C39.4769 28.125 39.8743 28.2896 40.1674 28.5826C40.4604 28.8757 40.625 29.2731 40.625 29.6875V32.8125C40.625 33.2269 40.4604 33.6243 40.1674 33.9174C39.8743 34.2104 39.4769 34.375 39.0625 34.375H20.3125C19.8981 34.375 19.5007 34.2104 19.2076 33.9174C18.9146 33.6243 18.75 33.2269 18.75 32.8125V29.6875ZM25 42.1875C25 41.7731 25.1646 41.3757 25.4576 41.0826C25.7507 40.7896 26.1481 40.625 26.5625 40.625H48.4375C48.8519 40.625 49.2493 40.7896 49.5424 41.0826C49.8354 41.3757 50 41.7731 50 42.1875V45.3125C50 45.7269 49.8354 46.1243 49.5424 46.4174C49.2493 46.7104 48.8519 46.875 48.4375 46.875H26.5625C26.1481 46.875 25.7507 46.7104 25.4576 46.4174C25.1646 46.1243 25 45.7269 25 45.3125V42.1875Z" fill="#FAFAFA"/>
</svg>
