<svg width="37" height="42" viewBox="0 0 37 42" fill="none" xmlns="http://www.w3.org/2000/svg">
<path d="M18.5 2.625C20.4626 2.625 22.3448 3.17812 23.7326 4.16269C25.1204 5.14726 25.9 6.48261 25.9 7.875V18.375H11.1V7.875C11.1 6.48261 11.8796 5.14726 13.2674 4.16269C14.6552 3.17812 16.5374 2.625 18.5 2.625ZM29.6 18.375V7.875C29.6 5.78642 28.4305 3.78338 26.3489 2.30653C24.2672 0.829685 21.4439 0 18.5 0C15.5561 0 12.7328 0.829685 10.6511 2.30653C8.56946 3.78338 7.4 5.78642 7.4 7.875V18.375C5.4374 18.375 3.55518 18.9281 2.16741 19.9127C0.77964 20.8973 0 22.2326 0 23.625V36.75C0 38.1424 0.77964 39.4777 2.16741 40.4623C3.55518 41.4469 5.4374 42 7.4 42H29.6C31.5626 42 33.4448 41.4469 34.8326 40.4623C36.2204 39.4777 37 38.1424 37 36.75V23.625C37 22.2326 36.2204 20.8973 34.8326 19.9127C33.4448 18.9281 31.5626 18.375 29.6 18.375Z" fill="#FAFAFA"/>
</svg>
