<svg width="1280" height="193" viewBox="0 0 1280 193" fill="none" xmlns="http://www.w3.org/2000/svg">
<rect width="1280" height="193" fill="url(#paint0_linear_504_2)"/>
<path d="M159 63C322.705 68.7522 312.217 90.6106 474.098 120.522C635.98 150.434 855.317 96.7463 1211 193H159V63Z" fill="#B4B4B4"/>
<path d="M0 42C87.7472 45.7539 220.816 68.5842 328.918 111.5C437.02 154.416 835.057 119.446 947.41 193H0V42Z" fill="url(#paint1_linear_504_2)"/>
<path d="M1280 101C1096.92 101 1174.25 41.2245 879.109 41.2245C583.965 41.2245 138.695 67.2162 -7.08359e-05 1.43051e-06L1280 1.43051e-06V101Z" fill="#323A46"/>
<defs>
<linearGradient id="paint0_linear_504_2" x1="640" y1="0" x2="640" y2="193" gradientUnits="userSpaceOnUse">
<stop stop-color="#3B4452"/>
<stop offset="1" stop-color="#3D4859"/>
</linearGradient>
<linearGradient id="paint1_linear_504_2" x1="261.145" y1="15.5247" x2="261.145" y2="193" gradientUnits="userSpaceOnUse">
<stop stop-color="#FDFDFD"/>
<stop offset="0.875" stop-color="#D1D1D1"/>
<stop offset="1" stop-color="#C2C2C2"/>
</linearGradient>
</defs>
</svg>
